<svg aria-hidden="true" style="width:0;height:0;position:absolute;overflow:hidden" xmlns="http://www.w3.org/2000/svg"><defs><symbol id="icon-github" viewBox="0 0 32 32"><path d="M16 1.375c-8.282 0-14.996 6.714-14.996 14.996 0 6.585 4.245 12.18 10.148 14.195l.106.031c.75.141 1.025-.322 1.025-.721 0-.356-.012-1.3-.019-2.549-4.171.905-5.051-2.012-5.051-2.012a3.995 3.995 0 0 0-1.653-2.184l-.016-.009c-1.358-.93.105-.911.105-.911a3.151 3.151 0 0 1 2.289 1.53l.008.015a3.2 3.2 0 0 0 4.383 1.238l-.016.008a3.194 3.194 0 0 1 .949-2.005l.001-.001c-3.33-.375-6.831-1.665-6.831-7.41l-.001-.089c0-1.521.587-2.905 1.547-3.938l-.003.004a5.236 5.236 0 0 1-.321-1.821c0-.777.166-1.516.465-2.182l-.014.034s1.256-.402 4.124 1.537c1.124-.321 2.415-.506 3.749-.506s2.625.185 3.849.53l-.1-.024c2.849-1.939 4.105-1.537 4.105-1.537.285.642.451 1.39.451 2.177 0 .642-.11 1.258-.313 1.83l.012-.038A5.786 5.786 0 0 1 25.52 15.5l-.001.091v-.005c0 5.761-3.505 7.029-6.842 7.398a3.579 3.579 0 0 1 1.011 2.787l.001-.012c0 2.007-.019 3.619-.019 4.106 0 .394.262.862 1.031.712 6.028-2.029 10.292-7.629 10.292-14.226 0-8.272-6.706-14.977-14.977-14.977h-.019.001z"/></symbol><symbol id="icon-linkedin" viewBox="0 0 32 32"><path d="M29.333 16c0 7.364-5.97 13.333-13.333 13.333S2.667 23.363 2.667 16C2.667 8.636 8.637 2.667 16 2.667S29.333 8.637 29.333 16z"/><path fill="#fff" style="fill:var(--color2,#fff)" d="M12.516 9.523c0 .83-.632 1.502-1.62 1.502-.95 0-1.582-.672-1.562-1.502C9.314 8.653 9.946 8 10.915 8s1.582.652 1.601 1.523zM9.413 21.879V12.21h3.005v9.668l-3.005.001zM14.826 15.296c0-1.206-.04-2.234-.079-3.084h2.61l.139 1.325h.059c.395-.613 1.384-1.542 2.985-1.542 1.977 0 3.46 1.305 3.46 4.151v5.735h-3.005v-5.358c0-1.246-.435-2.096-1.522-2.096-.831 0-1.325.573-1.522 1.127a2.142 2.142 0 0 0-.119.752v5.576h-3.005v-6.584h-.001z"/></symbol></defs></svg>