<svg aria-hidden="true" style="width:0;height:0;position:absolute;overflow:hidden" xmlns="http://www.w3.org/2000/svg"><defs><symbol id="icon-github" viewBox="0 0 32 32"><path d="M16 1.375c-8.282 0-14.996 6.714-14.996 14.996 0 6.585 4.245 12.18 10.148 14.195l.106.031c.75.141 1.025-.322 1.025-.721 0-.356-.012-1.3-.019-2.549-4.171.905-5.051-2.012-5.051-2.012a3.995 3.995 0 0 0-1.653-2.184l-.016-.009c-1.358-.93.105-.911.105-.911a3.151 3.151 0 0 1 2.289 1.53l.008.015a3.2 3.2 0 0 0 4.383 1.238l-.016.008a3.194 3.194 0 0 1 .949-2.005l.001-.001c-3.33-.375-6.831-1.665-6.831-7.41l-.001-.089c0-1.521.587-2.905 1.547-3.938l-.003.004a5.236 5.236 0 0 1-.321-1.821c0-.777.166-1.516.465-2.182l-.014.034s1.256-.402 4.124 1.537c1.124-.321 2.415-.506 3.749-.506s2.625.185 3.849.53l-.1-.024c2.849-1.939 4.105-1.537 4.105-1.537.285.642.451 1.39.451 2.177 0 .642-.11 1.258-.313 1.83l.012-.038A5.786 5.786 0 0 1 25.52 15.5l-.001.091v-.005c0 5.761-3.505 7.029-6.842 7.398a3.579 3.579 0 0 1 1.011 2.787l.001-.012c0 2.007-.019 3.619-.019 4.106 0 .394.262.862 1.031.712 6.028-2.029 10.292-7.629 10.292-14.226 0-8.272-6.706-14.977-14.977-14.977h-.019.001z"/></symbol><symbol id="icon-linkedin" viewBox="0 0 32 32"><path d="M29.333 16c0 7.364-5.97 13.333-13.333 13.333S2.667 23.363 2.667 16C2.667 8.636 8.637 2.667 16 2.667S29.333 8.637 29.333 16z"/><path fill="#8e7970" style="fill:var(--color2,#8e7970)" d="M12.516 9.523c0 .83-.632 1.502-1.62 1.502-.95 0-1.582-.672-1.562-1.502C9.314 8.653 9.946 8 10.915 8s1.582.652 1.601 1.523zM9.413 21.879V12.21h3.005v9.668l-3.005.001zM14.826 15.296c0-1.206-.04-2.234-.079-3.084h2.61l.139 1.325h.059c.395-.613 1.384-1.542 2.985-1.542 1.977 0 3.46 1.305 3.46 4.151v5.735h-3.005v-5.358c0-1.246-.435-2.096-1.522-2.096-.831 0-1.325.573-1.522 1.127a2.142 2.142 0 0 0-.119.752v5.576h-3.005v-6.584h-.001z"/></symbol><symbol id="icon-burger" viewBox="0 0 32 32"><path d="M3.429 8c0-.631.512-1.143 1.143-1.143h22.857a1.143 1.143 0 0 1 0 2.286H4.572A1.143 1.143 0 0 1 3.429 8zM3.429 16c0-.631.512-1.143 1.143-1.143h22.857a1.143 1.143 0 0 1 0 2.286H4.572A1.143 1.143 0 0 1 3.429 16zM4.571 22.857a1.143 1.143 0 0 0 0 2.286h22.857a1.143 1.143 0 0 0 0-2.286H4.571z"/></symbol><symbol id="icon-cross" viewBox="0 0 32 32"><path d="M7.293 7.293a.999.999 0 0 1 1.414 0l16 16a.999.999 0 1 1-1.414 1.414l-16-16a.999.999 0 0 1 0-1.414z"/><path d="M24.707 7.293a.999.999 0 0 1 0 1.414l-16 16a.999.999 0 1 1-1.414-1.414l16-16a.999.999 0 0 1 1.414 0z"/></symbol><symbol id="icon-link" viewBox="0 0 32 32"><path d="M20.971 5.179c1.913-1.92 4.71-1.96 6.259-.406 1.551 1.558 1.51 4.373-.404 6.294l-3.232 3.244a.999.999 0 1 0 1.417 1.411l3.232-3.244c2.548-2.558 2.868-6.643.404-9.117-2.467-2.477-6.543-2.154-9.092.406l-6.463 6.489c-2.548 2.558-2.868 6.643-.404 9.117a1 1 0 1 0 1.417-1.411c-1.552-1.557-1.51-4.373.404-6.294l6.463-6.489z"/><path d="M19.313 12.628a1 1 0 1 0-1.417 1.411c1.551 1.558 1.51 4.373-.404 6.294l-6.463 6.489c-1.912 1.92-4.71 1.96-6.258.406-1.552-1.558-1.51-4.373.404-6.294l3.232-3.244a.999.999 0 1 0-1.417-1.411l-3.232 3.244C1.21 22.081.89 26.166 3.354 28.64c2.467 2.477 6.543 2.154 9.092-.406l6.463-6.489c2.548-2.558 2.868-6.643.404-9.117z"/></symbol><symbol id="icon-flag" viewBox="0 0 32 32"><path d="M6.667 1.667a1 1 0 0 1 1 1v1.447l2.098-.42a12.566 12.566 0 0 1 7.133.655l.271.109a9.668 9.668 0 0 0 5.934.403 2.6 2.6 0 0 1 3.23 2.522v9.823a2.871 2.871 0 0 1-2.176 2.786l-.286.071a12.565 12.565 0 0 1-7.717-.524 10.574 10.574 0 0 0-5.998-.551l-2.49.498v9.847a1 1 0 0 1-2 0V2.666a1 1 0 0 1 1-1zm1 15.78 2.098-.42a12.566 12.566 0 0 1 7.133.655 10.57 10.57 0 0 0 6.489.44l.286-.071a.873.873 0 0 0 .661-.846V7.382a.6.6 0 0 0-.745-.582 11.659 11.659 0 0 1-7.161-.486l-.271-.109a10.574 10.574 0 0 0-5.998-.551l-2.49.498v11.294z"/></symbol><symbol id="icon-university" viewBox="0 0 32 32"><path d="M15.482 4.403c.325-.092.667-.092.992 0 .69.196 1.387.377 2.085.56 3.281.856 6.613 1.725 9.578 4.14l1.365 1.112a2.29 2.29 0 0 1 .831 1.786v9.333a1 1 0 0 1-2 0v-6.591l-.217.177a15.951 15.951 0 0 1-3.198 2.018.984.984 0 0 1 .082.396v5.725a3.666 3.666 0 0 1-2.335 3.416l-5.333 2.079a3.667 3.667 0 0 1-2.664 0l-5.333-2.079A3.666 3.666 0 0 1 7 23.059v-5.725c0-.144.031-.281.086-.405a16.072 16.072 0 0 1-3.223-2.03l-1.365-1.112c-1.108-.902-1.108-2.671-.002-3.574l1.388-1.132c2.943-2.402 6.252-3.266 9.509-4.116.7-.183 1.398-.365 2.089-.562zm12.851 7.598a.306.306 0 0 0-.094-.237l-1.365-1.112C24 8.666 21.439 7.791 18.187 6.936c-.715-.188-1.451-.381-2.208-.595-.761.216-1.499.41-2.216.599-3.227.849-6.038 1.588-8.614 3.691l-1.388 1.132c-.046.037-.094.117-.094.237s.049.199.094.237l1.365 1.112c2.598 2.116 5.435 2.861 8.687 3.716.715.188 1.451.381 2.208.595.761-.216 1.499-.41 2.216-.599 3.227-.849 6.038-1.589 8.614-3.691l1.388-1.132c.046-.037.094-.117.094-.237zm-9.726 7.034c-.7.183-1.398.365-2.089.562a1.817 1.817 0 0 1-.992 0c-.69-.196-1.387-.377-2.085-.56-1.483-.387-2.976-.776-4.441-1.31v5.33c0 .687.421 1.303 1.061 1.553l5.333 2.079c.389.152.821.152 1.211 0l5.333-2.079a1.666 1.666 0 0 0 1.061-1.553v-5.319c-1.449.528-2.926.913-4.393 1.296z"/></symbol><symbol id="icon-it" viewBox="0 0 32 32"><path d="M2.667 8a4 4 0 0 1 4-4h18.667a4 4 0 0 1 4 4v12a4 4 0 0 1-4 4h-8v1.333h2.667a1.333 1.333 0 0 1 0 2.666h-8a1.333 1.333 0 0 1 0-2.666h2.667V24h-8a4 4 0 0 1-4-4V8zm4-1.333c-.736 0-1.333.597-1.333 1.333v12c0 .736.597 1.333 1.333 1.333h18.667c.736 0 1.333-.597 1.333-1.333V8c0-.736-.597-1.333-1.333-1.333H6.667z"/></symbol><symbol id="icon-rubik" viewBox="0 0 32 32"><path d="M29.536 8.547 16.419.123a.777.777 0 0 0-.839 0L2.463 8.544a.778.778 0 0 0-.357.654l.003 13.974c0 .27.14.52.37.661l13.114 8.053a.771.771 0 0 0 .812 0l13.115-8.049a.775.775 0 0 0 .37-.661l.002-13.974a.775.775 0 0 0-.357-.653zM16 1.989l4.807 3.076L16 8.141l-4.807-3.076L16 1.989zM3.896 22.606v-4.963l4.711 2.86.001 4.997-4.711-2.894zm4.712-4.163-4.712-2.894v-5.025l4.712 3.015v4.904zM4.907 9.068l4.594-2.939 4.594 2.939-4.594 2.939-4.594-2.939zm5.486 4.471 4.712-3.015v5.025l-4.712 2.894v-4.904zm.003 8.033 3.132 2.004-3.132 1.924v-3.927zm4.711 7.918-3.899-2.395 3.899-2.394v4.789zM16 23.055l-4.818-3.009L16 17.051l4.818 3.006L16 23.055zm.893 6.435v-4.785l3.896 2.392-3.896 2.393zm4.712-3.988-3.135-1.925 3.135-2.006v3.931zm.002-7.055-4.712-2.894v-5.025l4.712 3.015v4.904zm-3.7-9.375 4.594-2.939 4.594 2.939-4.594 2.939-4.594-2.939zM28.105 22.61l-4.712 2.894v-4.903l4.712-2.948v4.957zm0-7.057-4.712 2.894v-4.904l4.712-3.015v5.025z"/></symbol><symbol id="icon-growth" viewBox="0 0 32 32"><path d="M1.335 29.331H1.33c-.736 0-1.333.597-1.333 1.333v.006a1.334 1.334 0 0 0 1.333 1.329H30.671c.735 0 1.331-.594 1.333-1.328v-.005c0-.736-.597-1.333-1.333-1.333h-.006z"/><path d="M5.862 20.001c-1.75 0-3.199 1.449-3.199 3.199v7.47a1.334 1.334 0 0 0 1.333 1.329H9.335a1.334 1.334 0 0 0 1.329-1.328V23.2c0-1.75-1.449-3.199-3.199-3.199zM15.203 15.463c-1.75 0-3.199 1.449-3.199 3.199V30.67a1.334 1.334 0 0 0 1.328 1.329h5.335a1.334 1.334 0 0 0 1.329-1.328V18.663c0-1.75-1.449-3.199-3.199-3.199zM24.533 11.467c-1.75 0-3.199 1.449-3.199 3.199V30.67a1.334 1.334 0 0 0 1.329 1.329h5.34c.735 0 1.331-.594 1.333-1.328V14.667c0-1.75-1.459-3.199-3.209-3.199zM23.285.001a1.334 1.334 0 0 0-1.331 1.328v.005c0 .735.595 1.332 1.331 1.333h1.378C17.122 9.15 9.226 13.178 1.09 14.685a1.335 1.335 0 0 0-1.061 1.563l-.001-.008a1.336 1.336 0 0 0 1.553 1.071l-.008.001c8.76-1.623 17.189-5.976 25.099-12.841v1.575c0 .735.594 1.33 1.328 1.333h.005c.736 0 1.333-.597 1.333-1.333V2.114c0-1.151-.974-2.115-2.125-2.115z"/></symbol><symbol id="icon-instagram" viewBox="0 0 32 32"><path d="M16 5.067h5.4a7.202 7.202 0 0 1 2.516.483l-.049-.017a4.498 4.498 0 0 1 2.523 2.503l.011.03c.286.731.456 1.578.467 2.462v.005c.067 1.4.067 1.867.067 5.4s0 4-.067 5.4a7.202 7.202 0 0 1-.483 2.516l.017-.049a4.498 4.498 0 0 1-2.503 2.523l-.03.011a7.058 7.058 0 0 1-2.462.467H10.602a7.202 7.202 0 0 1-2.516-.483l.049.017a4.498 4.498 0 0 1-2.523-2.503l-.011-.03a7.058 7.058 0 0 1-.467-2.462v-.005c-.067-1.4-.067-1.867-.067-5.4s0-4 .067-5.4a7.202 7.202 0 0 1 .483-2.516l-.017.049a4.498 4.498 0 0 1 2.503-2.523l.03-.011a7.058 7.058 0 0 1 2.462-.467H16zm0-2.4h-5.467c-1.184.051-2.3.267-3.351.625l.084-.025a6.697 6.697 0 0 0-2.328 1.661l-.005.006a5.681 5.681 0 0 0-1.521 2.294l-.012.04a9.445 9.445 0 0 0-.666 3.253v.014c-.067 1.4-.067 1.867-.067 5.467s0 4.067.067 5.467a9.642 9.642 0 0 0 .69 3.332l-.023-.065a5.693 5.693 0 0 0 1.529 2.329l.004.004a5.681 5.681 0 0 0 2.294 1.521l.04.012a9.445 9.445 0 0 0 3.253.666h10.947a9.642 9.642 0 0 0 3.332-.69l-.065.023a5.693 5.693 0 0 0 2.329-1.529l.004-.004a6.684 6.684 0 0 0 1.584-2.289l.016-.044a11.61 11.61 0 0 0 .599-3.242l.001-.025c.067-1.4.067-1.867.067-5.467s0-4.067-.067-5.467a11.933 11.933 0 0 0-.625-3.351l.025.084a6.697 6.697 0 0 0-1.597-2.33l-.003-.003a6.684 6.684 0 0 0-2.289-1.584l-.044-.016a11.61 11.61 0 0 0-3.242-.599l-.025-.001h-5.467z"/><path d="M16 9.133A6.867 6.867 0 1 0 22.867 16 6.867 6.867 0 0 0 16 9.133zm0 11.334A4.467 4.467 0 1 1 20.467 16c0 2.467-2 4.467-4.467 4.467zM24.733 8.867a1.6 1.6 0 1 1-1.6-1.6 1.6 1.6 0 0 1 1.6 1.6z"/></symbol><symbol id="icon-telegram" viewBox="0 0 32 32"><path d="M22.122 10.04h.022c.209 0 .403.065.562.177l-.003-.002a.632.632 0 0 1 .213.403v.003a2.553 2.553 0 0 1 .024.598v-.009c-.225 2.369-1.201 8.114-1.697 10.766-.21 1.123-.623 1.499-1.023 1.535-.869.081-1.529-.574-2.371-1.126-1.318-.865-2.063-1.403-3.342-2.246-1.479-.973-.52-1.51.322-2.384.221-.23 4.052-3.715 4.127-4.031a.308.308 0 0 0-.07-.265.34.34 0 0 0-.185-.053.364.364 0 0 0-.128.024l.002-.001q-.198.045-6.316 4.174a2.805 2.805 0 0 1-1.619.599h-.006a10.542 10.542 0 0 1-2.401-.573l.074.024c-.938-.306-1.683-.467-1.619-.985q.051-.404 1.114-.827 6.548-2.853 8.733-3.761a22.627 22.627 0 0 1 5.429-2.01l.157-.031zM15.93 1.025C7.628 1.045.905 7.78.905 16.085c0 8.317 6.742 15.06 15.06 15.06s15.06-6.742 15.06-15.06c0-8.305-6.723-15.04-15.023-15.06H15.93z"/></symbol><symbol id="icon-phone" viewBox="0 0 32 32"><path d="m20.742 19.397-.607.639s-1.443 1.52-5.383-2.628-2.497-5.668-2.497-5.668l.382-.403c.942-.992 1.031-2.584.209-3.747l-1.681-2.378c-1.017-1.439-2.983-1.629-4.149-.401L4.923 7.014c-.578.609-.966 1.398-.919 2.273.12 2.239 1.077 7.057 6.417 12.679 5.662 5.961 10.975 6.198 13.148 5.984.687-.068 1.285-.438 1.766-.945l1.894-1.994c1.279-1.346.918-3.654-.718-4.595l-2.547-1.466c-1.074-.618-2.383-.437-3.222.447zM17.679 2.506a1.002 1.002 0 0 1 1.149-.827l.199.039c.114.025.273.064.47.122.396.115.949.305 1.612.609 1.328.609 3.096 1.674 4.931 3.509s2.9 3.602 3.509 4.931c.304.663.494 1.216.609 1.612a7.282 7.282 0 0 1 .15.606l.008.042c.088.545-.278 1.082-.823 1.17a1 1 0 0 1-1.146-.823 6.15 6.15 0 0 0-.109-.437c-.09-.31-.247-.77-.507-1.338-.52-1.134-1.454-2.699-3.105-4.35s-3.216-2.585-4.35-3.105a9.864 9.864 0 0 0-1.338-.507 7.348 7.348 0 0 0-.423-.106 1.012 1.012 0 0 1-.836-1.149zM17.981 7.106a1 1 0 0 1 1.236-.687l-.275.962.275-.962.002.001.006.002.01.003.026.008.075.025c.06.021.139.051.236.093.194.083.46.212.786.405.653.386 1.543 1.028 2.59 2.074s1.688 1.938 2.074 2.59c.193.326.321.591.405.786a3.537 3.537 0 0 1 .118.311l.008.026.003.01.001.004.001.002s.001.002-.961.277l.962-.275a1 1 0 0 1-1.919.563l-.005-.014a2.58 2.58 0 0 0-.046-.117 4.879 4.879 0 0 0-.288-.555c-.297-.502-.834-1.261-1.768-2.195s-1.692-1.47-2.195-1.768a4.965 4.965 0 0 0-.555-.288 1.735 1.735 0 0 0-.117-.046l-.014-.005a.999.999 0 0 1-.673-1.232z"/></symbol><symbol id="icon-email" viewBox="0 0 32 32"><path d="M31.917 7.017A4.42 4.42 0 0 0 30.7 4.742a4.429 4.429 0 0 0-3.138-1.301H4.44A4.436 4.436 0 0 0 .088 7.017a4.26 4.26 0 0 0-.087.863v16.24c0 .623.132 1.222.368 1.763.219.516.541.983.933 1.375a4.434 4.434 0 0 0 3.138 1.301h23.122a4.408 4.408 0 0 0 2.833-1.024 4.445 4.445 0 0 0 1.243-1.652v-.004a4.387 4.387 0 0 0 .363-1.759V7.88c0-.293-.029-.583-.083-.863zm-29.01-.669a2.145 2.145 0 0 1 1.532-.636h23.122a2.137 2.137 0 0 1 1.727.863L17.169 17.137a1.759 1.759 0 0 1-1.169.438c-.417 0-.83-.145-1.168-.438L2.717 6.57c.054-.078.12-.152.19-.223zM2.271 24.12V8.921l8.77 7.651-8.766 7.643c-.004-.029-.004-.062-.004-.095zm25.29 2.167H4.439c-.393 0-.76-.103-1.073-.285l9.249-8.06.863.751a3.85 3.85 0 0 0 2.522.946c.9 0 1.805-.318 2.527-.946l.863-.751 9.245 8.06a2.144 2.144 0 0 1-1.074.285zm2.168-2.167c0 .033 0 .066-.004.095l-8.766-7.638 8.77-7.651v15.195z"/></symbol><symbol id="icon-location" viewBox="0 0 32 32"><path d="M16 0C10.477 0 6 4.477 6 10c0 10 10 22 10 22s10-12 10-22c0-5.523-4.477-10-10-10zm0 16.125a6.125 6.125 0 1 1 0-12.25 6.125 6.125 0 0 1 0 12.25zM12.125 10a3.875 3.875 0 1 1 7.75 0 3.875 3.875 0 0 1-7.75 0z"/></symbol></defs></svg>