<svg aria-hidden="true" style="width:0;height:0;position:absolute;overflow:hidden" xmlns="http://www.w3.org/2000/svg"><defs><symbol id="icon-github" viewBox="0 0 32 32"><path d="M16 1.375c-8.282 0-14.996 6.714-14.996 14.996 0 6.585 4.245 12.18 10.148 14.195l.106.031c.75.141 1.025-.322 1.025-.721 0-.356-.012-1.3-.019-2.549-4.171.905-5.051-2.012-5.051-2.012a3.995 3.995 0 0 0-1.653-2.184l-.016-.009c-1.358-.93.105-.911.105-.911a3.151 3.151 0 0 1 2.289 1.53l.008.015a3.2 3.2 0 0 0 4.383 1.238l-.016.008a3.194 3.194 0 0 1 .949-2.005l.001-.001c-3.33-.375-6.831-1.665-6.831-7.41l-.001-.089c0-1.521.587-2.905 1.547-3.938l-.003.004a5.236 5.236 0 0 1-.321-1.821c0-.777.166-1.516.465-2.182l-.014.034s1.256-.402 4.124 1.537c1.124-.321 2.415-.506 3.749-.506s2.625.185 3.849.53l-.1-.024c2.849-1.939 4.105-1.537 4.105-1.537.285.642.451 1.39.451 2.177 0 .642-.11 1.258-.313 1.83l.012-.038A5.786 5.786 0 0 1 25.52 15.5l-.001.091v-.005c0 5.761-3.505 7.029-6.842 7.398a3.579 3.579 0 0 1 1.011 2.787l.001-.012c0 2.007-.019 3.619-.019 4.106 0 .394.262.862 1.031.712 6.028-2.029 10.292-7.629 10.292-14.226 0-8.272-6.706-14.977-14.977-14.977h-.019.001z"/></symbol><symbol id="icon-linkedin" viewBox="0 0 32 32"><path d="M29.333 16c0 7.364-5.97 13.333-13.333 13.333S2.667 23.363 2.667 16C2.667 8.636 8.637 2.667 16 2.667S29.333 8.637 29.333 16z"/><path fill="#fff" style="fill:var(--color2,#fff)" d="M12.516 9.523c0 .83-.632 1.502-1.62 1.502-.95 0-1.582-.672-1.562-1.502C9.314 8.653 9.946 8 10.915 8s1.582.652 1.601 1.523zM9.413 21.879V12.21h3.005v9.668l-3.005.001zM14.826 15.296c0-1.206-.04-2.234-.079-3.084h2.61l.139 1.325h.059c.395-.613 1.384-1.542 2.985-1.542 1.977 0 3.46 1.305 3.46 4.151v5.735h-3.005v-5.358c0-1.246-.435-2.096-1.522-2.096-.831 0-1.325.573-1.522 1.127a2.142 2.142 0 0 0-.119.752v5.576h-3.005v-6.584h-.001z"/></symbol><symbol id="icon-burger" viewBox="0 0 32 32"><path d="M3.429 8c0-.631.512-1.143 1.143-1.143h22.857a1.143 1.143 0 0 1 0 2.286H4.572A1.143 1.143 0 0 1 3.429 8zM3.429 16c0-.631.512-1.143 1.143-1.143h22.857a1.143 1.143 0 0 1 0 2.286H4.572A1.143 1.143 0 0 1 3.429 16zM4.571 22.857a1.143 1.143 0 0 0 0 2.286h22.857a1.143 1.143 0 0 0 0-2.286H4.571z"/></symbol><symbol id="icon-cross" viewBox="0 0 32 32"><path d="M7.293 7.293a.999.999 0 0 1 1.414 0l16 16a.999.999 0 1 1-1.414 1.414l-16-16a.999.999 0 0 1 0-1.414z"/><path d="M24.707 7.293a.999.999 0 0 1 0 1.414l-16 16a.999.999 0 1 1-1.414-1.414l16-16a.999.999 0 0 1 1.414 0z"/></symbol><symbol id="icon-link" viewBox="0 0 32 32"><path d="M20.971 5.179c1.913-1.92 4.71-1.96 6.259-.406 1.551 1.558 1.51 4.373-.404 6.294l-3.232 3.244a.999.999 0 1 0 1.417 1.411l3.232-3.244c2.548-2.558 2.868-6.643.404-9.117-2.467-2.477-6.543-2.154-9.092.406l-6.463 6.489c-2.548 2.558-2.868 6.643-.404 9.117a1 1 0 1 0 1.417-1.411c-1.552-1.557-1.51-4.373.404-6.294l6.463-6.489z"/><path d="M19.313 12.628a1 1 0 1 0-1.417 1.411c1.551 1.558 1.51 4.373-.404 6.294l-6.463 6.489c-1.912 1.92-4.71 1.96-6.258.406-1.552-1.558-1.51-4.373.404-6.294l3.232-3.244a.999.999 0 1 0-1.417-1.411l-3.232 3.244C1.21 22.081.89 26.166 3.354 28.64c2.467 2.477 6.543 2.154 9.092-.406l6.463-6.489c2.548-2.558 2.868-6.643.404-9.117z"/></symbol><symbol id="icon-flag" viewBox="0 0 32 32"><path d="M6.667 1.667a1 1 0 0 1 1 1v1.447l2.098-.42a12.566 12.566 0 0 1 7.133.655l.271.109a9.668 9.668 0 0 0 5.934.403 2.6 2.6 0 0 1 3.23 2.522v9.823a2.871 2.871 0 0 1-2.176 2.786l-.286.071a12.565 12.565 0 0 1-7.717-.524 10.574 10.574 0 0 0-5.998-.551l-2.49.498v9.847a1 1 0 0 1-2 0V2.666a1 1 0 0 1 1-1zm1 15.78 2.098-.42a12.566 12.566 0 0 1 7.133.655 10.57 10.57 0 0 0 6.489.44l.286-.071a.873.873 0 0 0 .661-.846V7.382a.6.6 0 0 0-.745-.582 11.659 11.659 0 0 1-7.161-.486l-.271-.109a10.574 10.574 0 0 0-5.998-.551l-2.49.498v11.294z"/></symbol><symbol id="icon-university" viewBox="0 0 32 32"><path d="M15.482 4.403c.325-.092.667-.092.992 0 .69.196 1.387.377 2.085.56 3.281.856 6.613 1.725 9.578 4.14l1.365 1.112a2.29 2.29 0 0 1 .831 1.786v9.333a1 1 0 0 1-2 0v-6.591l-.217.177a15.951 15.951 0 0 1-3.198 2.018.984.984 0 0 1 .082.396v5.725a3.666 3.666 0 0 1-2.335 3.416l-5.333 2.079a3.667 3.667 0 0 1-2.664 0l-5.333-2.079A3.666 3.666 0 0 1 7 23.059v-5.725c0-.144.031-.281.086-.405a16.072 16.072 0 0 1-3.223-2.03l-1.365-1.112c-1.108-.902-1.108-2.671-.002-3.574l1.388-1.132c2.943-2.402 6.252-3.266 9.509-4.116.7-.183 1.398-.365 2.089-.562zm12.851 7.598a.306.306 0 0 0-.094-.237l-1.365-1.112C24 8.666 21.439 7.791 18.187 6.936c-.715-.188-1.451-.381-2.208-.595-.761.216-1.499.41-2.216.599-3.227.849-6.038 1.588-8.614 3.691l-1.388 1.132c-.046.037-.094.117-.094.237s.049.199.094.237l1.365 1.112c2.598 2.116 5.435 2.861 8.687 3.716.715.188 1.451.381 2.208.595.761-.216 1.499-.41 2.216-.599 3.227-.849 6.038-1.589 8.614-3.691l1.388-1.132c.046-.037.094-.117.094-.237zm-9.726 7.034c-.7.183-1.398.365-2.089.562a1.817 1.817 0 0 1-.992 0c-.69-.196-1.387-.377-2.085-.56-1.483-.387-2.976-.776-4.441-1.31v5.33c0 .687.421 1.303 1.061 1.553l5.333 2.079c.389.152.821.152 1.211 0l5.333-2.079a1.666 1.666 0 0 0 1.061-1.553v-5.319c-1.449.528-2.926.913-4.393 1.296z"/></symbol><symbol id="icon-it" viewBox="0 0 32 32"><path d="M2.667 8a4 4 0 0 1 4-4h18.667a4 4 0 0 1 4 4v12a4 4 0 0 1-4 4h-8v1.333h2.667a1.333 1.333 0 0 1 0 2.666h-8a1.333 1.333 0 0 1 0-2.666h2.667V24h-8a4 4 0 0 1-4-4V8zm4-1.333c-.736 0-1.333.597-1.333 1.333v12c0 .736.597 1.333 1.333 1.333h18.667c.736 0 1.333-.597 1.333-1.333V8c0-.736-.597-1.333-1.333-1.333H6.667z"/></symbol><symbol id="icon-rubik" viewBox="0 0 32 32"><path d="M29.536 8.547 16.419.123a.777.777 0 0 0-.839 0L2.463 8.544a.778.778 0 0 0-.357.654l.003 13.974c0 .27.14.52.37.661l13.114 8.053a.771.771 0 0 0 .812 0l13.115-8.049a.775.775 0 0 0 .37-.661l.002-13.974a.775.775 0 0 0-.357-.653zM16 1.989l4.807 3.076L16 8.141l-4.807-3.076L16 1.989zM3.896 22.606v-4.963l4.711 2.86.001 4.997-4.711-2.894zm4.712-4.163-4.712-2.894v-5.025l4.712 3.015v4.904zM4.907 9.068l4.594-2.939 4.594 2.939-4.594 2.939-4.594-2.939zm5.486 4.471 4.712-3.015v5.025l-4.712 2.894v-4.904zm.003 8.033 3.132 2.004-3.132 1.924v-3.927zm4.711 7.918-3.899-2.395 3.899-2.394v4.789zM16 23.055l-4.818-3.009L16 17.051l4.818 3.006L16 23.055zm.893 6.435v-4.785l3.896 2.392-3.896 2.393zm4.712-3.988-3.135-1.925 3.135-2.006v3.931zm.002-7.055-4.712-2.894v-5.025l4.712 3.015v4.904zm-3.7-9.375 4.594-2.939 4.594 2.939-4.594 2.939-4.594-2.939zM28.105 22.61l-4.712 2.894v-4.903l4.712-2.948v4.957zm0-7.057-4.712 2.894v-4.904l4.712-3.015v5.025z"/></symbol><symbol id="icon-growth" viewBox="0 0 32 32"><path d="M1.335 29.331H1.33c-.736 0-1.333.597-1.333 1.333v.006a1.334 1.334 0 0 0 1.333 1.329H30.671c.735 0 1.331-.594 1.333-1.328v-.005c0-.736-.597-1.333-1.333-1.333h-.006z"/><path d="M5.862 20.001c-1.75 0-3.199 1.449-3.199 3.199v7.47a1.334 1.334 0 0 0 1.333 1.329H9.335a1.334 1.334 0 0 0 1.329-1.328V23.2c0-1.75-1.449-3.199-3.199-3.199zM15.203 15.463c-1.75 0-3.199 1.449-3.199 3.199V30.67a1.334 1.334 0 0 0 1.328 1.329h5.335a1.334 1.334 0 0 0 1.329-1.328V18.663c0-1.75-1.449-3.199-3.199-3.199zM24.533 11.467c-1.75 0-3.199 1.449-3.199 3.199V30.67a1.334 1.334 0 0 0 1.329 1.329h5.34c.735 0 1.331-.594 1.333-1.328V14.667c0-1.75-1.459-3.199-3.209-3.199zM23.285.001a1.334 1.334 0 0 0-1.331 1.328v.005c0 .735.595 1.332 1.331 1.333h1.378C17.122 9.15 9.226 13.178 1.09 14.685a1.335 1.335 0 0 0-1.061 1.563l-.001-.008a1.336 1.336 0 0 0 1.553 1.071l-.008.001c8.76-1.623 17.189-5.976 25.099-12.841v1.575c0 .735.594 1.33 1.328 1.333h.005c.736 0 1.333-.597 1.333-1.333V2.114c0-1.151-.974-2.115-2.125-2.115z"/></symbol></defs></svg>