<svg aria-hidden="true" style="position: absolute; width: 0; height: 0; overflow: hidden;" version="1.1" xmlns="http://www.w3.org/2000/svg" xmlns:xlink="http://www.w3.org/1999/xlink">
<defs>
<symbol id="icon-github" viewBox="0 0 32 32">
<path d="M16 1.375c-8.282 0-14.996 6.714-14.996 14.996 0 6.585 4.245 12.18 10.148 14.195l0.106 0.031c0.75 0.141 1.025-0.322 1.025-0.721 0-0.356-0.012-1.3-0.019-2.549-4.171 0.905-5.051-2.012-5.051-2.012-0.288-0.925-0.878-1.685-1.653-2.184l-0.016-0.009c-1.358-0.93 0.105-0.911 0.105-0.911 0.987 0.139 1.814 0.718 2.289 1.53l0.008 0.015c0.554 0.995 1.6 1.657 2.801 1.657 0.576 0 1.116-0.152 1.582-0.419l-0.016 0.008c0.072-0.791 0.421-1.489 0.949-2.005l0.001-0.001c-3.33-0.375-6.831-1.665-6.831-7.41 0-0.027-0.001-0.058-0.001-0.089 0-1.521 0.587-2.905 1.547-3.938l-0.003 0.004c-0.203-0.542-0.321-1.168-0.321-1.821 0-0.777 0.166-1.516 0.465-2.182l-0.014 0.034s1.256-0.402 4.124 1.537c1.124-0.321 2.415-0.506 3.749-0.506s2.625 0.185 3.849 0.53l-0.1-0.024c2.849-1.939 4.105-1.537 4.105-1.537 0.285 0.642 0.451 1.39 0.451 2.177 0 0.642-0.11 1.258-0.313 1.83l0.012-0.038c0.953 1.032 1.538 2.416 1.538 3.937 0 0.031 0 0.061-0.001 0.091v-0.005c0 5.761-3.505 7.029-6.842 7.398 0.632 0.647 1.022 1.532 1.022 2.509 0 0.093-0.004 0.186-0.011 0.278l0.001-0.012c0 2.007-0.019 3.619-0.019 4.106 0 0.394 0.262 0.862 1.031 0.712 6.028-2.029 10.292-7.629 10.292-14.226 0-8.272-6.706-14.977-14.977-14.977-0.006 0-0.013 0-0.019 0h0.001z"></path>
</symbol>
<symbol id="icon-linkedin" viewBox="0 0 32 32">
<path d="M29.333 16c0 7.364-5.97 13.333-13.333 13.333s-13.333-5.97-13.333-13.333c0-7.364 5.97-13.333 13.333-13.333s13.333 5.97 13.333 13.333z"></path>
<path fill="#fff" style="fill: var(--color2, #fff)" d="M12.516 9.523c0 0.83-0.632 1.502-1.62 1.502-0.95 0-1.582-0.672-1.562-1.502-0.020-0.87 0.612-1.523 1.581-1.523s1.582 0.652 1.601 1.523zM9.413 21.879v-9.669h3.005v9.668l-3.005 0.001z"></path>
<path fill="#fff" style="fill: var(--color2, #fff)" d="M14.826 15.296c0-1.206-0.040-2.234-0.079-3.084h2.61l0.139 1.325h0.059c0.395-0.613 1.384-1.542 2.985-1.542 1.977 0 3.46 1.305 3.46 4.151v5.735h-3.005v-5.358c0-1.246-0.435-2.096-1.522-2.096-0.831 0-1.325 0.573-1.522 1.127-0.079 0.198-0.119 0.474-0.119 0.752v5.576h-3.005v-6.584h-0.001z"></path>
</symbol>
<symbol id="icon-burger" viewBox="0 0 32 32">
<path d="M3.429 8c0-0.631 0.512-1.143 1.143-1.143h22.857c0.631 0 1.143 0.512 1.143 1.143s-0.512 1.143-1.143 1.143h-22.857c-0.631 0-1.143-0.512-1.143-1.143z"></path>
<path d="M3.429 16c0-0.631 0.512-1.143 1.143-1.143h22.857c0.631 0 1.143 0.512 1.143 1.143s-0.512 1.143-1.143 1.143h-22.857c-0.631 0-1.143-0.512-1.143-1.143z"></path>
<path d="M4.571 22.857c-0.631 0-1.143 0.512-1.143 1.143s0.512 1.143 1.143 1.143h22.857c0.631 0 1.143-0.512 1.143-1.143s-0.512-1.143-1.143-1.143h-22.857z"></path>
</symbol>
<symbol id="icon-cross" viewBox="0 0 32 32">
<path d="M7.293 7.293c0.391-0.391 1.024-0.391 1.414 0l16 16c0.391 0.391 0.391 1.024 0 1.414s-1.024 0.391-1.414 0l-16-16c-0.391-0.391-0.391-1.024 0-1.414z"></path>
<path d="M24.707 7.293c0.391 0.391 0.391 1.024 0 1.414l-16 16c-0.391 0.391-1.024 0.391-1.414 0s-0.391-1.024 0-1.414l16-16c0.391-0.391 1.024-0.391 1.414 0z"></path>
</symbol>
<symbol id="icon-link" viewBox="0 0 32 32">
<path d="M20.971 5.179c1.913-1.92 4.71-1.96 6.259-0.406 1.551 1.558 1.51 4.373-0.404 6.294l-3.232 3.244c-0.39 0.391-0.389 1.025 0.003 1.414s1.025 0.389 1.414-0.003l3.232-3.244c2.548-2.558 2.868-6.643 0.404-9.117-2.467-2.477-6.543-2.154-9.092 0.406l-6.463 6.489c-2.548 2.558-2.868 6.643-0.404 9.117 0.39 0.391 1.023 0.393 1.414 0.003s0.393-1.023 0.003-1.414c-1.552-1.557-1.51-4.373 0.404-6.294l6.463-6.489z"></path>
<path d="M19.313 12.628c-0.39-0.391-1.023-0.393-1.414-0.003s-0.392 1.023-0.003 1.414c1.551 1.558 1.51 4.373-0.404 6.294l-6.463 6.489c-1.912 1.92-4.71 1.96-6.258 0.406-1.552-1.558-1.51-4.373 0.404-6.294l3.232-3.244c0.39-0.391 0.389-1.024-0.003-1.414s-1.024-0.389-1.414 0.003l-3.232 3.244c-2.548 2.558-2.868 6.643-0.404 9.117 2.467 2.477 6.543 2.154 9.092-0.406l6.463-6.489c2.548-2.558 2.868-6.643 0.404-9.117z"></path>
</symbol>
</defs>
</svg>
