<svg aria-hidden="true" style="position: absolute; width: 0; height: 0; overflow: hidden;" version="1.1" xmlns="http://www.w3.org/2000/svg" xmlns:xlink="http://www.w3.org/1999/xlink">
<defs>
<symbol id="icon-github" viewBox="0 0 32 32">
<path d="M16 1.375c-8.282 0-14.996 6.714-14.996 14.996 0 6.585 4.245 12.18 10.148 14.195l0.106 0.031c0.75 0.141 1.025-0.322 1.025-0.721 0-0.356-0.012-1.3-0.019-2.549-4.171 0.905-5.051-2.012-5.051-2.012-0.288-0.925-0.878-1.685-1.653-2.184l-0.016-0.009c-1.358-0.93 0.105-0.911 0.105-0.911 0.987 0.139 1.814 0.718 2.289 1.53l0.008 0.015c0.554 0.995 1.6 1.657 2.801 1.657 0.576 0 1.116-0.152 1.582-0.419l-0.016 0.008c0.072-0.791 0.421-1.489 0.949-2.005l0.001-0.001c-3.33-0.375-6.831-1.665-6.831-7.41 0-0.027-0.001-0.058-0.001-0.089 0-1.521 0.587-2.905 1.547-3.938l-0.003 0.004c-0.203-0.542-0.321-1.168-0.321-1.821 0-0.777 0.166-1.516 0.465-2.182l-0.014 0.034s1.256-0.402 4.124 1.537c1.124-0.321 2.415-0.506 3.749-0.506s2.625 0.185 3.849 0.53l-0.1-0.024c2.849-1.939 4.105-1.537 4.105-1.537 0.285 0.642 0.451 1.39 0.451 2.177 0 0.642-0.11 1.258-0.313 1.83l0.012-0.038c0.953 1.032 1.538 2.416 1.538 3.937 0 0.031 0 0.061-0.001 0.091v-0.005c0 5.761-3.505 7.029-6.842 7.398 0.632 0.647 1.022 1.532 1.022 2.509 0 0.093-0.004 0.186-0.011 0.278l0.001-0.012c0 2.007-0.019 3.619-0.019 4.106 0 0.394 0.262 0.862 1.031 0.712 6.028-2.029 10.292-7.629 10.292-14.226 0-8.272-6.706-14.977-14.977-14.977-0.006 0-0.013 0-0.019 0h0.001z"></path>
</symbol>
<symbol id="icon-linkedin" viewBox="0 0 32 32">
<path d="M29.333 16c0 7.364-5.97 13.333-13.333 13.333s-13.333-5.97-13.333-13.333c0-7.364 5.97-13.333 13.333-13.333s13.333 5.97 13.333 13.333z"></path>
<path fill="#8e7970" style="fill: var(--color2, #8e7970)" d="M12.516 9.523c0 0.83-0.632 1.502-1.62 1.502-0.95 0-1.582-0.672-1.562-1.502-0.020-0.87 0.612-1.523 1.581-1.523s1.582 0.652 1.601 1.523zM9.413 21.879v-9.669h3.005v9.668l-3.005 0.001z"></path>
<path fill="#8e7970" style="fill: var(--color2, #8e7970)" d="M14.826 15.296c0-1.206-0.040-2.234-0.079-3.084h2.61l0.139 1.325h0.059c0.395-0.613 1.384-1.542 2.985-1.542 1.977 0 3.46 1.305 3.46 4.151v5.735h-3.005v-5.358c0-1.246-0.435-2.096-1.522-2.096-0.831 0-1.325 0.573-1.522 1.127-0.079 0.198-0.119 0.474-0.119 0.752v5.576h-3.005v-6.584h-0.001z"></path>
</symbol>
<symbol id="icon-burger" viewBox="0 0 32 32">
<path d="M3.429 8c0-0.631 0.512-1.143 1.143-1.143h22.857c0.631 0 1.143 0.512 1.143 1.143s-0.512 1.143-1.143 1.143h-22.857c-0.631 0-1.143-0.512-1.143-1.143z"></path>
<path d="M3.429 16c0-0.631 0.512-1.143 1.143-1.143h22.857c0.631 0 1.143 0.512 1.143 1.143s-0.512 1.143-1.143 1.143h-22.857c-0.631 0-1.143-0.512-1.143-1.143z"></path>
<path d="M4.571 22.857c-0.631 0-1.143 0.512-1.143 1.143s0.512 1.143 1.143 1.143h22.857c0.631 0 1.143-0.512 1.143-1.143s-0.512-1.143-1.143-1.143h-22.857z"></path>
</symbol>
<symbol id="icon-cross" viewBox="0 0 32 32">
<path d="M7.293 7.293c0.391-0.391 1.024-0.391 1.414 0l16 16c0.391 0.391 0.391 1.024 0 1.414s-1.024 0.391-1.414 0l-16-16c-0.391-0.391-0.391-1.024 0-1.414z"></path>
<path d="M24.707 7.293c0.391 0.391 0.391 1.024 0 1.414l-16 16c-0.391 0.391-1.024 0.391-1.414 0s-0.391-1.024 0-1.414l16-16c0.391-0.391 1.024-0.391 1.414 0z"></path>
</symbol>
<symbol id="icon-link" viewBox="0 0 32 32">
<path d="M20.971 5.179c1.913-1.92 4.71-1.96 6.259-0.406 1.551 1.558 1.51 4.373-0.404 6.294l-3.232 3.244c-0.39 0.391-0.389 1.025 0.003 1.414s1.025 0.389 1.414-0.003l3.232-3.244c2.548-2.558 2.868-6.643 0.404-9.117-2.467-2.477-6.543-2.154-9.092 0.406l-6.463 6.489c-2.548 2.558-2.868 6.643-0.404 9.117 0.39 0.391 1.023 0.393 1.414 0.003s0.393-1.023 0.003-1.414c-1.552-1.557-1.51-4.373 0.404-6.294l6.463-6.489z"></path>
<path d="M19.313 12.628c-0.39-0.391-1.023-0.393-1.414-0.003s-0.392 1.023-0.003 1.414c1.551 1.558 1.51 4.373-0.404 6.294l-6.463 6.489c-1.912 1.92-4.71 1.96-6.258 0.406-1.552-1.558-1.51-4.373 0.404-6.294l3.232-3.244c0.39-0.391 0.389-1.024-0.003-1.414s-1.024-0.389-1.414 0.003l-3.232 3.244c-2.548 2.558-2.868 6.643-0.404 9.117 2.467 2.477 6.543 2.154 9.092-0.406l6.463-6.489c2.548-2.558 2.868-6.643 0.404-9.117z"></path>
</symbol>
<symbol id="icon-flag" viewBox="0 0 32 32">
<path d="M6.667 1.667c0.552 0 1 0.448 1 1v1.447l2.098-0.42c2.391-0.478 4.869-0.251 7.133 0.655l0.271 0.109c1.886 0.755 3.963 0.895 5.934 0.403 1.641-0.41 3.23 0.831 3.23 2.522v9.823c0 1.318-0.897 2.467-2.176 2.786l-0.286 0.071c-2.563 0.641-5.263 0.458-7.717-0.524-1.904-0.761-3.988-0.953-5.998-0.551l-2.49 0.498v9.847c0 0.552-0.448 1-1 1s-1-0.448-1-1v-26.667c0-0.552 0.448-1 1-1zM7.667 17.447l2.098-0.42c2.391-0.478 4.869-0.251 7.133 0.655 2.063 0.825 4.333 0.979 6.489 0.44l0.286-0.071c0.388-0.097 0.661-0.446 0.661-0.846v-9.823c0-0.39-0.367-0.676-0.745-0.582-2.379 0.595-4.885 0.425-7.161-0.486l-0.271-0.109c-1.904-0.761-3.988-0.953-5.998-0.551l-2.49 0.498v11.294z"></path>
</symbol>
<symbol id="icon-university" viewBox="0 0 32 32">
<path d="M15.482 4.403c0.325-0.092 0.667-0.092 0.992-0 0.69 0.196 1.387 0.377 2.085 0.56 3.281 0.856 6.613 1.725 9.578 4.14l1.365 1.112c0.554 0.451 0.831 1.119 0.831 1.786v9.333c0 0.552-0.448 1-1 1s-1-0.448-1-1v-6.591l-0.217 0.177c-1.027 0.838-2.099 1.489-3.198 2.018 0.053 0.121 0.082 0.255 0.082 0.396v5.725c0 1.511-0.927 2.867-2.335 3.416l-5.333 2.079c-0.857 0.334-1.807 0.334-2.664 0l-5.333-2.079c-1.408-0.549-2.335-1.905-2.335-3.416v-5.725c0-0.144 0.031-0.281 0.086-0.405-1.107-0.532-2.187-1.186-3.223-2.030l-1.365-1.112c-1.108-0.902-1.108-2.671-0.002-3.574l1.388-1.132c2.943-2.402 6.252-3.266 9.509-4.116 0.7-0.183 1.398-0.365 2.089-0.562zM28.333 12.001c0-0.12-0.049-0.199-0.094-0.237l-1.365-1.112c-2.874-1.986-5.435-2.861-8.687-3.716-0.715-0.188-1.451-0.381-2.208-0.595-0.761 0.216-1.499 0.41-2.216 0.599-3.227 0.849-6.038 1.588-8.614 3.691l-1.388 1.132c-0.046 0.037-0.094 0.117-0.094 0.237s0.049 0.199 0.094 0.237l1.365 1.112c2.598 2.116 5.435 2.861 8.687 3.716 0.715 0.188 1.451 0.381 2.208 0.595 0.761-0.216 1.499-0.41 2.216-0.599 3.227-0.849 6.038-1.589 8.614-3.691l1.388-1.132c0.046-0.037 0.094-0.117 0.094-0.237zM18.607 19.035c-0.7 0.183-1.398 0.365-2.089 0.562-0.325 0.092-0.667 0.092-0.992 0-0.69-0.196-1.387-0.377-2.085-0.56-1.483-0.387-2.976-0.776-4.441-1.31v5.33c0 0.687 0.421 1.303 1.061 1.553l5.333 2.079c0.389 0.152 0.821 0.152 1.211 0l5.333-2.079c0.64-0.249 1.061-0.866 1.061-1.553v-5.319c-1.449 0.528-2.926 0.913-4.393 1.296z"></path>
</symbol>
<symbol id="icon-it" viewBox="0 0 32 32">
<path d="M2.667 8c0-2.209 1.791-4 4-4h18.667c2.209 0 4 1.791 4 4v12c0 2.209-1.791 4-4 4h-8v1.333h2.667c0.736 0 1.333 0.597 1.333 1.333s-0.597 1.333-1.333 1.333h-8c-0.736 0-1.333-0.597-1.333-1.333s0.597-1.333 1.333-1.333h2.667v-1.333h-8c-2.209 0-4-1.791-4-4v-12zM6.667 6.667c-0.736 0-1.333 0.597-1.333 1.333v12c0 0.736 0.597 1.333 1.333 1.333h18.667c0.736 0 1.333-0.597 1.333-1.333v-12c0-0.736-0.597-1.333-1.333-1.333h-18.667z"></path>
</symbol>
<symbol id="icon-rubik" viewBox="0 0 32 32">
<path d="M29.536 8.547l-13.117-8.424c-0.256-0.164-0.583-0.164-0.839 0l-13.117 8.421c-0.222 0.143-0.357 0.389-0.357 0.654l0.003 13.974c0 0.27 0.14 0.52 0.37 0.661l13.114 8.053c0.125 0.077 0.265 0.115 0.406 0.115s0.282-0.038 0.406-0.115l13.115-8.049c0.23-0.141 0.37-0.391 0.37-0.661l0.002-13.974c0-0.264-0.134-0.51-0.357-0.653zM16 1.989l4.807 3.076-4.807 3.076-4.807-3.076 4.807-3.076zM3.896 22.606v-4.963l4.711 2.86 0.001 4.997-4.711-2.894zM8.608 18.443l-4.712-2.894v-5.025l4.712 3.015v4.904zM4.907 9.068l4.594-2.939 4.594 2.939-4.594 2.939-4.594-2.939zM10.393 13.539l4.712-3.015v5.025l-4.712 2.894v-4.904zM10.396 21.572l3.132 2.004-3.132 1.924v-3.927zM15.107 29.49l-3.899-2.395 3.899-2.394v4.789zM16 23.055l-4.818-3.009 4.818-2.995 4.818 3.006-4.818 2.998zM16.893 29.49v-4.785l3.896 2.392-3.896 2.393zM21.605 25.502l-3.135-1.925 3.135-2.006v3.931zM21.607 18.447l-4.712-2.894v-5.025l4.712 3.015v4.904zM17.907 9.072l4.594-2.939 4.594 2.939-4.594 2.939-4.594-2.939zM28.105 22.61l-4.712 2.894v-4.903l4.712-2.948v4.957zM28.105 15.553l-4.712 2.894v-4.904l4.712-3.015v5.025z"></path>
</symbol>
<symbol id="icon-growth" viewBox="0 0 32 32">
<path d="M1.335 29.331c-0.002 0-0.003 0-0.005 0-0.736 0-1.333 0.597-1.333 1.333 0 0.002 0 0.004 0 0.006v-0c0.003 0.734 0.599 1.329 1.333 1.329 0.002 0 0.004 0 0.006 0h29.33c0.002 0 0.003 0 0.005 0 0.735 0 1.331-0.594 1.333-1.328v-0c0-0.002 0-0.003 0-0.005 0-0.736-0.597-1.333-1.333-1.333-0.002 0-0.004 0-0.006 0h0z"></path>
<path d="M5.862 20.001c-1.75 0-3.199 1.449-3.199 3.199v7.47c0.003 0.734 0.599 1.329 1.333 1.329 0.002 0 0.004 0 0.005 0h5.334c0.733-0.003 1.326-0.596 1.329-1.328v-7.471c0-1.75-1.449-3.199-3.199-3.199z"></path>
<path d="M15.203 15.463c-1.75 0-3.199 1.449-3.199 3.199v12.008c0.003 0.733 0.596 1.326 1.328 1.329h5.335c0.733-0.003 1.326-0.596 1.329-1.328v-12.008c0-1.75-1.449-3.199-3.199-3.199z"></path>
<path d="M24.533 11.467c-1.75 0-3.199 1.449-3.199 3.199v16.004c0.003 0.733 0.596 1.326 1.329 1.329h5.335c0.002 0 0.003 0 0.005 0 0.735 0 1.331-0.594 1.333-1.328v-16.004c0-1.75-1.459-3.199-3.209-3.199z"></path>
<path d="M23.285 0.001c-0.733 0.001-1.328 0.595-1.331 1.328v0c0 0.002 0 0.003 0 0.005 0 0.735 0.595 1.332 1.331 1.333h1.378c-7.541 6.483-15.437 10.511-23.573 12.018-0.622 0.121-1.085 0.661-1.085 1.31 0 0.087 0.008 0.171 0.024 0.253l-0.001-0.008c0.118 0.626 0.66 1.093 1.312 1.093 0.082 0 0.163-0.007 0.241-0.022l-0.008 0.001c8.76-1.623 17.189-5.976 25.099-12.841v1.57c0 0.002 0 0.003 0 0.005 0 0.735 0.594 1.33 1.328 1.333h0c0.002 0 0.003 0 0.005 0 0.736 0 1.333-0.597 1.333-1.333 0-0.002 0-0.004 0-0.005v0-3.927c0-1.151-0.974-2.115-2.125-2.115z"></path>
</symbol>
<symbol id="icon-instagram" viewBox="0 0 32 32">
<path d="M16 5.067h5.4c0.889 0.011 1.735 0.181 2.516 0.483l-0.049-0.017c1.164 0.464 2.069 1.369 2.523 2.503l0.011 0.030c0.286 0.731 0.456 1.578 0.467 2.462l0 0.005c0.067 1.4 0.067 1.867 0.067 5.4s0 4-0.067 5.4c-0.011 0.889-0.181 1.735-0.483 2.516l0.017-0.049c-0.464 1.164-1.369 2.069-2.503 2.523l-0.030 0.011c-0.731 0.286-1.578 0.456-2.462 0.467l-0.005 0h-10.8c-0.889-0.011-1.735-0.181-2.516-0.483l0.049 0.017c-1.164-0.464-2.069-1.369-2.523-2.503l-0.011-0.030c-0.286-0.731-0.456-1.578-0.467-2.462l-0-0.005c-0.067-1.4-0.067-1.867-0.067-5.4s0-4 0.067-5.4c0.011-0.889 0.181-1.735 0.483-2.516l-0.017 0.049c0.464-1.164 1.369-2.069 2.503-2.523l0.030-0.011c0.731-0.286 1.578-0.456 2.462-0.467l0.005-0h5.4zM16 2.667h-5.467c-1.184 0.051-2.3 0.267-3.351 0.625l0.084-0.025c-0.919 0.398-1.696 0.962-2.328 1.661l-0.005 0.006c-0.682 0.625-1.208 1.409-1.521 2.294l-0.012 0.040c-0.391 0.965-0.633 2.083-0.666 3.253l-0 0.014c-0.067 1.4-0.067 1.867-0.067 5.467s0 4.067 0.067 5.467c0.034 1.184 0.276 2.302 0.69 3.332l-0.023-0.065c0.325 0.924 0.851 1.708 1.529 2.329l0.004 0.004c0.625 0.682 1.409 1.208 2.294 1.521l0.040 0.012c0.965 0.391 2.083 0.633 3.253 0.666l0.014 0h10.933c1.184-0.034 2.302-0.276 3.332-0.69l-0.065 0.023c0.924-0.325 1.708-0.851 2.329-1.529l0.004-0.004c0.679-0.641 1.221-1.418 1.584-2.289l0.016-0.044c0.333-0.966 0.549-2.083 0.599-3.242l0.001-0.025c0.067-1.4 0.067-1.867 0.067-5.467s0-4.067-0.067-5.467c-0.051-1.184-0.267-2.3-0.625-3.351l0.025 0.084c-0.379-0.915-0.921-1.692-1.597-2.33l-0.003-0.003c-0.641-0.679-1.418-1.221-2.289-1.584l-0.044-0.016c-0.966-0.333-2.083-0.549-3.242-0.599l-0.025-0.001h-5.467z"></path>
<path d="M16 9.133c-3.792 0-6.867 3.074-6.867 6.867s3.074 6.867 6.867 6.867c3.792 0 6.867-3.074 6.867-6.867v0c0-3.792-3.074-6.867-6.867-6.867v0zM16 20.467c-2.467 0-4.467-2-4.467-4.467s2-4.467 4.467-4.467c2.467 0 4.467 2 4.467 4.467v0c0 2.467-2 4.467-4.467 4.467v0z"></path>
<path d="M24.733 8.867c0 0.884-0.716 1.6-1.6 1.6s-1.6-0.716-1.6-1.6c0-0.884 0.716-1.6 1.6-1.6v0c0.884 0 1.6 0.716 1.6 1.6v0z"></path>
</symbol>
<symbol id="icon-telegram" viewBox="0 0 32 32">
<path d="M22.122 10.040c0.006 0 0.014 0 0.022 0 0.209 0 0.403 0.065 0.562 0.177l-0.003-0.002c0.116 0.101 0.194 0.243 0.213 0.403v0.003c0.020 0.122 0.031 0.262 0.031 0.405 0 0.065-0.002 0.129-0.007 0.193v-0.009c-0.225 2.369-1.201 8.114-1.697 10.766-0.21 1.123-0.623 1.499-1.023 1.535-0.869 0.081-1.529-0.574-2.371-1.126-1.318-0.865-2.063-1.403-3.342-2.246-1.479-0.973-0.52-1.51 0.322-2.384 0.221-0.23 4.052-3.715 4.127-4.031 0.004-0.019 0.006-0.040 0.006-0.062 0-0.078-0.029-0.149-0.076-0.203v0c-0.052-0.034-0.117-0.053-0.185-0.053-0.045 0-0.088 0.009-0.128 0.024l0.002-0.001q-0.198 0.045-6.316 4.174c-0.445 0.351-1.007 0.573-1.619 0.599h-0.006c-0.867-0.105-1.654-0.298-2.401-0.573l0.074 0.024c-0.938-0.306-1.683-0.467-1.619-0.985q0.051-0.404 1.114-0.827 6.548-2.853 8.733-3.761c1.607-0.853 3.47-1.555 5.429-2.010l0.157-0.031zM15.93 1.025c-8.302 0.020-15.025 6.755-15.025 15.060 0 8.317 6.742 15.060 15.060 15.060s15.060-6.742 15.060-15.060c0-8.305-6.723-15.040-15.023-15.060h-0.002q-0.035 0-0.070 0z"></path>
</symbol>
<symbol id="icon-phone" viewBox="0 0 32 32">
<path d="M20.742 19.397l-0.607 0.639c0 0-1.443 1.52-5.383-2.628s-2.497-5.668-2.497-5.668l0.382-0.403c0.942-0.992 1.031-2.584 0.209-3.747l-1.681-2.378c-1.017-1.439-2.983-1.629-4.149-0.401l-2.093 2.203c-0.578 0.609-0.966 1.398-0.919 2.273 0.12 2.239 1.077 7.057 6.417 12.679 5.662 5.961 10.975 6.198 13.148 5.984 0.687-0.068 1.285-0.438 1.766-0.945l1.894-1.994c1.279-1.346 0.918-3.654-0.718-4.595l-2.547-1.466c-1.074-0.618-2.383-0.437-3.222 0.447z"></path>
<path d="M17.679 2.506c0.088-0.545 0.604-0.915 1.149-0.827 0.034 0.006 0.142 0.027 0.199 0.039 0.114 0.025 0.273 0.064 0.47 0.122 0.396 0.115 0.949 0.305 1.612 0.609 1.328 0.609 3.096 1.674 4.931 3.509s2.9 3.602 3.509 4.931c0.304 0.663 0.494 1.216 0.609 1.612 0.058 0.198 0.097 0.357 0.122 0.47 0.013 0.057 0.022 0.103 0.028 0.136l0.008 0.042c0.088 0.545-0.278 1.082-0.823 1.17-0.544 0.088-1.056-0.28-1.146-0.823-0.003-0.015-0.011-0.054-0.019-0.091-0.017-0.074-0.045-0.191-0.090-0.346-0.090-0.31-0.247-0.77-0.507-1.338-0.52-1.134-1.454-2.699-3.105-4.35s-3.216-2.585-4.35-3.105c-0.568-0.26-1.028-0.417-1.338-0.507-0.155-0.045-0.349-0.090-0.423-0.106-0.543-0.090-0.924-0.605-0.836-1.149z"></path>
<path d="M17.981 7.106c0.152-0.531 0.705-0.839 1.236-0.687l-0.275 0.962c0.275-0.962 0.275-0.962 0.275-0.962l0.002 0.001 0.006 0.002 0.010 0.003 0.026 0.008c0.020 0.006 0.045 0.015 0.075 0.025 0.060 0.021 0.139 0.051 0.236 0.093 0.194 0.083 0.46 0.212 0.786 0.405 0.653 0.386 1.543 1.028 2.59 2.074s1.688 1.938 2.074 2.59c0.193 0.326 0.321 0.591 0.405 0.786 0.042 0.097 0.072 0.176 0.093 0.236 0.011 0.030 0.019 0.055 0.025 0.075l0.008 0.026 0.003 0.010 0.001 0.004 0.001 0.002c0 0 0.001 0.002-0.961 0.277l0.962-0.275c0.152 0.531-0.156 1.084-0.687 1.236-0.527 0.15-1.075-0.151-1.232-0.673l-0.005-0.014c-0.007-0.020-0.022-0.059-0.046-0.117-0.049-0.115-0.139-0.303-0.288-0.555-0.297-0.502-0.834-1.261-1.768-2.195s-1.692-1.47-2.195-1.768c-0.251-0.149-0.44-0.238-0.555-0.288-0.058-0.025-0.097-0.039-0.117-0.046l-0.014-0.005c-0.523-0.157-0.824-0.706-0.673-1.232z"></path>
</symbol>
<symbol id="icon-email" viewBox="0 0 32 32">
<path d="M31.917 7.017c-0.144-0.727-0.466-1.392-0.916-1.941-0.095-0.12-0.194-0.227-0.301-0.334-0.797-0.801-1.916-1.301-3.138-1.301h-23.122c-1.222 0-2.337 0.5-3.138 1.301-0.107 0.107-0.206 0.214-0.301 0.334-0.45 0.549-0.772 1.214-0.913 1.941-0.058 0.28-0.087 0.57-0.087 0.863v16.24c0 0.623 0.132 1.222 0.368 1.763 0.219 0.516 0.541 0.983 0.933 1.375 0.099 0.099 0.198 0.19 0.306 0.281 0.768 0.636 1.759 1.020 2.832 1.020h23.122c1.074 0 2.069-0.384 2.833-1.024 0.107-0.087 0.207-0.178 0.306-0.277 0.392-0.392 0.714-0.859 0.937-1.375v-0.004c0.236-0.541 0.363-1.136 0.363-1.759v-16.24c0-0.293-0.029-0.583-0.083-0.863zM2.907 6.348c0.397-0.396 0.929-0.636 1.532-0.636h23.122c0.603 0 1.14 0.24 1.532 0.636 0.070 0.071 0.136 0.149 0.195 0.227l-12.119 10.562c-0.334 0.293-0.747 0.438-1.169 0.438-0.417 0-0.83-0.145-1.168-0.438l-12.115-10.567c0.054-0.078 0.12-0.152 0.19-0.223zM2.271 24.12v-15.199l8.77 7.651-8.766 7.643c-0.004-0.029-0.004-0.062-0.004-0.095zM27.561 26.287h-23.122c-0.393 0-0.76-0.103-1.073-0.285l9.249-8.060 0.863 0.751c0.723 0.628 1.627 0.946 2.522 0.946 0.9 0 1.805-0.318 2.527-0.946l0.863-0.751 9.245 8.060c-0.314 0.181-0.681 0.285-1.074 0.285zM29.729 24.12c0 0.033 0 0.066-0.004 0.095l-8.766-7.638 8.77-7.651v15.195z"></path>
</symbol>
<symbol id="icon-location" viewBox="0 0 32 32">
<path d="M16 0c-5.523 0-10 4.477-10 10 0 10 10 22 10 22s10-12 10-22c0-5.523-4.477-10-10-10zM16 16.125c-3.383 0-6.125-2.742-6.125-6.125s2.742-6.125 6.125-6.125 6.125 2.742 6.125 6.125-2.742 6.125-6.125 6.125zM12.125 10c0-2.14 1.735-3.875 3.875-3.875s3.875 1.735 3.875 3.875c0 2.14-1.735 3.875-3.875 3.875s-3.875-1.735-3.875-3.875z"></path>
</symbol>
</defs>
</svg>
